<svg xmlns="http://www.w3.org/2000/svg" viewBox="0 0 215 124" width="215" height="124">
	<style>
		tspan { white-space:pre }
		.shp0 { fill: #00486c } 
		.shp1 { fill: #00537c } 
		.shp2 { fill: #004263 } 
		.shp3 { fill: none;stroke: #002533;stroke-width: 4 } 
		.shp4 { fill: #00384c } 
		.shp5 { fill: #003e56 } 
		.shp6 { fill: #002d3f } 
	</style>
	<g id="Layer">
		<path id="Layer" class="shp0" d="M80.94 42.73L81 119.82L2.29 112.93L2.23 35.84L80.94 42.73L80.94 42.73Z" />
		<path id="Layer" class="shp1" d="M80.94 42.73L212.42 8.91L212.47 86L81 119.82L80.94 42.73L80.94 42.73Z" />
		<path id="Layer" class="shp2" d="M2.23 35.84L133.71 2.02L212.42 8.91L80.94 42.73L2.23 35.84L2.23 35.84Z" />
	</g>
	<path id="Layer" class="shp3" d="M80.94 42.73L81 119.82L2.29 112.93L2.23 35.84L80.94 42.73L80.94 42.73Z" />
	<path id="Layer" class="shp3" d="M80.94 42.73L212.42 8.91L212.47 86L81 119.82L80.94 42.73L80.94 42.73Z" />
	<path id="Layer" class="shp3" d="M2.23 35.84L133.71 2.02L212.42 8.91L80.94 42.73L2.23 35.84L2.23 35.84Z" />
	<g id="Layer">
		<g id="Layer">
			<path id="Layer" class="shp4" d="M14.41 46.2L14.41 46.2C13.95 46.12 13.49 46.14 13.04 46.26C12.59 46.37 12.17 46.58 11.81 46.87C11.45 47.16 11.15 47.52 10.94 47.93C10.73 48.35 10.61 48.8 10.59 49.26L10.74 102.83C10.78 103.32 10.91 103.79 11.12 104.23C11.33 104.68 11.61 105.08 11.96 105.41C12.32 105.75 12.73 106.03 13.17 106.22C13.62 106.41 14.1 106.53 14.59 106.55L14.59 106.55C15.05 106.63 15.51 106.61 15.96 106.49C16.41 106.38 16.83 106.17 17.19 105.88C17.55 105.59 17.85 105.23 18.06 104.82C18.27 104.4 18.39 103.95 18.41 103.49L18.2 49.92C18.16 49.43 18.03 48.96 17.82 48.52C17.61 48.07 17.33 47.67 16.98 47.34C16.62 47 16.21 46.72 15.77 46.53C15.32 46.34 14.84 46.22 14.35 46.2" />
		</g>
	</g>
	<g id="Layer">
		<g id="Layer">
			<path id="Layer" class="shp4" d="M28.01 47.29C25.89 47.11 24.18 48.48 24.19 50.35L24.42 103.94C24.46 104.43 24.59 104.9 24.8 105.34C25 105.78 25.29 106.18 25.64 106.52C25.99 106.86 26.4 107.13 26.85 107.33C27.29 107.52 27.77 107.64 28.26 107.66L28.26 107.66C28.72 107.74 29.18 107.72 29.63 107.61C30.08 107.49 30.5 107.29 30.86 107C31.22 106.71 31.52 106.35 31.73 105.93C31.94 105.52 32.06 105.07 32.08 104.61L31.85 51.02C31.81 50.53 31.68 50.06 31.47 49.62C31.26 49.18 30.97 48.78 30.62 48.44C30.27 48.1 29.86 47.83 29.41 47.63C28.97 47.44 28.49 47.33 28 47.3" />
		</g>
	</g>
	<g id="Layer">
		<g id="Layer">
			<path id="Layer" class="shp4" d="M41.61 48.4C39.49 48.22 37.79 49.58 37.79 51.45L38.05 105.05C38.09 105.54 38.22 106.01 38.43 106.45C38.64 106.89 38.92 107.29 39.27 107.63C39.62 107.97 40.03 108.24 40.48 108.44C40.93 108.63 41.4 108.74 41.89 108.77C42.35 108.85 42.81 108.83 43.26 108.72C43.71 108.6 44.13 108.4 44.49 108.11C44.85 107.82 45.15 107.46 45.36 107.04C45.57 106.63 45.69 106.18 45.71 105.72L45.45 52.12C45.41 51.63 45.28 51.16 45.07 50.72C44.87 50.28 44.58 49.88 44.23 49.54C43.88 49.2 43.47 48.93 43.02 48.73C42.58 48.54 42.1 48.42 41.61 48.4" />
		</g>
	</g>
	<g id="Layer">
		<g id="Layer">
			<path id="Layer" class="shp4" d="M55.22 49.51C54.77 49.43 54.31 49.45 53.86 49.56C53.42 49.67 53 49.87 52.64 50.16C52.28 50.44 51.99 50.8 51.78 51.2C51.56 51.61 51.44 52.05 51.41 52.51L51.68 106.13C51.72 106.62 51.85 107.09 52.06 107.53C52.27 107.97 52.55 108.37 52.9 108.71C53.25 109.04 53.66 109.32 54.11 109.51C54.56 109.7 55.03 109.82 55.52 109.84C55.97 109.92 56.44 109.9 56.89 109.78C57.33 109.67 57.75 109.46 58.11 109.17C58.47 108.88 58.76 108.52 58.97 108.1C59.18 107.69 59.3 107.24 59.32 106.78L59.05 53.17C59.02 52.68 58.89 52.21 58.69 51.77C58.48 51.32 58.19 50.92 57.84 50.58C57.49 50.24 57.08 49.97 56.64 49.78C56.19 49.59 55.71 49.48 55.22 49.46" />
		</g>
	</g>
	<g id="Layer">
		<g id="Layer">
			<path id="Layer" class="shp4" d="M68.84 50.59L68.84 50.59C68.39 50.51 67.93 50.53 67.49 50.64C67.04 50.75 66.63 50.96 66.27 51.24C65.91 51.52 65.62 51.88 65.4 52.28C65.19 52.69 65.07 53.13 65.04 53.59L65.34 107.22C65.38 107.7 65.5 108.18 65.71 108.62C65.92 109.06 66.2 109.45 66.55 109.79C66.9 110.13 67.31 110.4 67.75 110.59C68.2 110.78 68.68 110.89 69.16 110.91L69.16 110.91C69.61 110.99 70.07 110.97 70.52 110.86C70.96 110.75 71.37 110.55 71.73 110.26C72.09 109.98 72.39 109.62 72.6 109.22C72.81 108.81 72.93 108.37 72.96 107.91L72.66 54.28C72.62 53.8 72.5 53.32 72.29 52.88C72.09 52.44 71.8 52.04 71.45 51.7C71.1 51.37 70.7 51.09 70.25 50.9C69.8 50.71 69.33 50.6 68.84 50.58" />
		</g>
	</g>
	<g id="Layer">
		<g id="Layer">
			<path id="Layer" class="shp5" d="M92.97 48.3C92.5 48.44 92.05 48.65 91.65 48.93C91.24 49.21 90.89 49.55 90.59 49.94C90.29 50.33 90.05 50.76 89.89 51.22C89.72 51.68 89.63 52.17 89.62 52.66L89.62 106.2C89.59 106.63 89.66 107.06 89.83 107.45C89.99 107.84 90.26 108.19 90.59 108.46C90.92 108.73 91.32 108.91 91.74 109C92.16 109.08 92.59 109.06 93 108.94L93 108.94C93.47 108.8 93.91 108.59 94.32 108.31C94.72 108.03 95.08 107.7 95.38 107.31C95.67 106.92 95.91 106.49 96.07 106.02C96.24 105.56 96.33 105.08 96.34 104.59L96.34 51.04C96.37 50.61 96.3 50.19 96.13 49.79C95.97 49.4 95.7 49.06 95.37 48.79C95.04 48.52 94.65 48.33 94.23 48.25C93.81 48.16 93.38 48.18 92.97 48.3L92.97 48.3" />
		</g>
	</g>
	<g id="Layer">
		<g id="Layer">
			<path id="Layer" class="shp5" d="M104.92 45.21C104.45 45.35 104 45.56 103.6 45.84C103.19 46.12 102.84 46.46 102.54 46.85C102.24 47.24 102 47.67 101.84 48.13C101.67 48.59 101.58 49.08 101.57 49.57L101.57 103.09C101.53 103.52 101.6 103.95 101.77 104.34C101.94 104.73 102.2 105.08 102.53 105.35C102.86 105.62 103.26 105.8 103.68 105.89C104.1 105.97 104.53 105.95 104.94 105.83L104.94 105.83C105.41 105.69 105.86 105.48 106.26 105.2C106.66 104.92 107.02 104.58 107.32 104.19C107.62 103.8 107.85 103.37 108.02 102.91C108.18 102.45 108.27 101.96 108.28 101.47L108.28 47.94C108.32 47.51 108.25 47.08 108.08 46.69C107.91 46.29 107.65 45.95 107.32 45.67C106.98 45.4 106.59 45.22 106.17 45.14C105.75 45.05 105.31 45.08 104.9 45.2L104.9 45.2" />
		</g>
	</g>
	<g id="Layer">
		<g id="Layer">
			<path id="Layer" class="shp5" d="M116.88 42.1C116.41 42.24 115.96 42.45 115.56 42.73C115.16 43.01 114.8 43.35 114.5 43.74C114.2 44.13 113.96 44.56 113.8 45.02C113.64 45.48 113.54 45.97 113.53 46.46L113.53 100C113.5 100.43 113.57 100.86 113.74 101.25C113.9 101.64 114.17 101.99 114.5 102.26C114.83 102.53 115.23 102.71 115.65 102.8C116.07 102.88 116.5 102.86 116.91 102.74L116.91 102.74C117.38 102.6 117.83 102.39 118.23 102.11C118.63 101.83 118.99 101.49 119.29 101.1C119.59 100.71 119.83 100.28 119.99 99.82C120.15 99.36 120.25 98.87 120.26 98.38L120.26 44.83C120.29 44.4 120.22 43.97 120.05 43.58C119.89 43.19 119.62 42.84 119.29 42.57C118.96 42.3 118.56 42.12 118.14 42.03C117.72 41.95 117.29 41.97 116.88 42.09L116.88 42.09" />
		</g>
	</g>
	<g id="Layer">
		<g id="Layer">
			<path id="Layer" class="shp5" d="M128.84 39C128.37 39.14 127.92 39.35 127.52 39.63C127.11 39.91 126.76 40.25 126.46 40.64C126.16 41.03 125.92 41.46 125.76 41.92C125.59 42.38 125.5 42.87 125.49 43.36L125.49 96.89C125.46 97.32 125.53 97.75 125.7 98.14C125.86 98.53 126.13 98.88 126.46 99.15C126.79 99.42 127.19 99.6 127.61 99.69C128.03 99.77 128.46 99.75 128.87 99.63L128.87 99.63C129.34 99.49 129.78 99.28 130.19 99C130.59 98.72 130.95 98.39 131.25 98C131.54 97.61 131.78 97.18 131.94 96.71C132.11 96.25 132.2 95.77 132.21 95.28L132.21 41.73C132.24 41.3 132.17 40.88 132 40.48C131.84 40.09 131.57 39.75 131.24 39.48C130.91 39.21 130.52 39.02 130.1 38.94C129.68 38.85 129.25 38.87 128.84 38.99L128.84 38.99" />
		</g>
	</g>
	<g id="Layer">
		<g id="Layer">
			<path id="Layer" class="shp5" d="M140.79 35.9C140.32 36.04 139.88 36.25 139.47 36.53C139.07 36.8 138.71 37.14 138.41 37.53C138.11 37.92 137.88 38.35 137.72 38.81C137.55 39.28 137.46 39.76 137.45 40.25L137.45 93.79C137.41 94.22 137.48 94.65 137.65 95.04C137.82 95.43 138.08 95.78 138.41 96.05C138.74 96.32 139.14 96.5 139.56 96.59C139.98 96.67 140.41 96.65 140.82 96.53L140.82 96.53C141.29 96.39 141.74 96.18 142.14 95.9C142.54 95.62 142.9 95.28 143.2 94.89C143.5 94.5 143.73 94.07 143.9 93.61C144.06 93.15 144.15 92.66 144.16 92.17L144.16 38.59C144.2 38.16 144.13 37.73 143.96 37.34C143.79 36.94 143.53 36.6 143.2 36.32C142.86 36.05 142.47 35.87 142.05 35.79C141.63 35.7 141.19 35.73 140.78 35.85L140.78 35.85" />
		</g>
	</g>
	<g id="Layer">
		<g id="Layer">
			<path id="Layer" class="shp5" d="M152.74 32.8C152.27 32.94 151.82 33.15 151.42 33.43C151.02 33.71 150.66 34.05 150.36 34.44C150.06 34.83 149.82 35.26 149.66 35.72C149.5 36.18 149.4 36.67 149.39 37.16L149.39 90.69C149.36 91.12 149.43 91.54 149.6 91.94C149.76 92.33 150.03 92.67 150.36 92.94C150.69 93.21 151.08 93.4 151.5 93.48C151.92 93.57 152.35 93.55 152.76 93.43L152.76 93.43C153.23 93.29 153.68 93.08 154.08 92.8C154.48 92.52 154.84 92.18 155.14 91.79C155.44 91.4 155.68 90.97 155.84 90.51C156 90.05 156.1 89.56 156.11 89.07L156.11 35.53C156.14 35.1 156.07 34.68 155.9 34.28C155.74 33.89 155.47 33.55 155.14 33.28C154.81 33.01 154.42 32.82 154 32.74C153.58 32.65 153.15 32.67 152.74 32.79L152.74 32.79" />
		</g>
	</g>
	<g id="Layer">
		<g id="Layer">
			<path id="Layer" class="shp5" d="M164.74 29.69C164.27 29.83 163.82 30.04 163.42 30.32C163.01 30.6 162.66 30.94 162.36 31.33C162.06 31.72 161.82 32.15 161.66 32.61C161.49 33.07 161.4 33.56 161.39 34.05L161.39 87.59C161.36 88.02 161.43 88.45 161.6 88.84C161.76 89.23 162.03 89.58 162.36 89.85C162.69 90.12 163.09 90.3 163.51 90.39C163.93 90.47 164.36 90.45 164.77 90.33L164.77 90.33C165.24 90.19 165.69 89.98 166.09 89.7C166.49 89.42 166.85 89.08 167.15 88.69C167.45 88.3 167.69 87.87 167.85 87.41C168.01 86.95 168.11 86.46 168.12 85.97L168.12 32.42C168.15 31.99 168.08 31.57 167.91 31.17C167.74 30.78 167.48 30.44 167.15 30.17C166.81 29.9 166.42 29.72 166 29.63C165.58 29.55 165.15 29.57 164.74 29.69L164.74 29.69Z" />
		</g>
	</g>
	<g id="Layer">
		<g id="Layer">
			<path id="Layer" class="shp5" d="M176.68 26.59C176.21 26.73 175.76 26.94 175.36 27.22C174.96 27.5 174.6 27.84 174.3 28.23C174 28.62 173.77 29.05 173.6 29.51C173.44 29.97 173.35 30.46 173.34 30.95L173.34 84.48C173.3 84.91 173.37 85.34 173.54 85.73C173.71 86.12 173.97 86.47 174.3 86.74C174.63 87.01 175.03 87.19 175.45 87.28C175.87 87.36 176.3 87.34 176.71 87.22L176.71 87.22C177.18 87.08 177.63 86.87 178.03 86.59C178.43 86.31 178.79 85.97 179.09 85.58C179.39 85.19 179.62 84.76 179.79 84.3C179.95 83.84 180.04 83.35 180.05 82.86L180.05 29.33C180.08 28.91 180.01 28.49 179.85 28.1C179.68 27.71 179.43 27.37 179.1 27.1C178.78 26.83 178.4 26.65 177.98 26.56C177.57 26.47 177.15 26.48 176.74 26.59L176.74 26.59" />
		</g>
	</g>
	<g id="Layer">
		<g id="Layer">
			<path id="Layer" class="shp5" d="M188.63 23.49C188.16 23.63 187.71 23.84 187.31 24.12C186.91 24.4 186.55 24.74 186.25 25.13C185.95 25.52 185.71 25.95 185.55 26.41C185.39 26.87 185.29 27.36 185.28 27.85L185.28 81.39C185.25 81.82 185.32 82.24 185.49 82.64C185.65 83.03 185.92 83.37 186.25 83.64C186.58 83.91 186.97 84.1 187.39 84.18C187.81 84.27 188.24 84.25 188.65 84.13L188.65 84.13C189.12 83.99 189.57 83.78 189.97 83.5C190.38 83.22 190.73 82.88 191.03 82.49C191.33 82.1 191.57 81.67 191.73 81.21C191.9 80.75 191.99 80.26 192 79.77L192 26.22C192.03 25.79 191.96 25.36 191.79 24.97C191.63 24.58 191.36 24.23 191.03 23.96C190.7 23.69 190.3 23.51 189.88 23.42C189.46 23.34 189.03 23.36 188.62 23.48L188.62 23.48" />
		</g>
	</g>
	<g id="Layer">
		<g id="Layer">
			<path id="Layer" class="shp5" d="M200.59 20.39C200.12 20.53 199.67 20.74 199.27 21.02C198.87 21.3 198.51 21.64 198.21 22.03C197.91 22.42 197.67 22.85 197.51 23.31C197.35 23.77 197.25 24.26 197.24 24.75L197.24 78.29C197.21 78.72 197.28 79.15 197.45 79.54C197.61 79.93 197.88 80.28 198.21 80.55C198.54 80.82 198.94 81 199.36 81.09C199.78 81.17 200.21 81.15 200.62 81.03L200.62 81.03C201.09 80.89 201.54 80.68 201.94 80.4C202.34 80.12 202.7 79.78 203 79.39C203.3 79 203.54 78.57 203.7 78.11C203.86 77.65 203.96 77.16 203.97 76.67L203.97 23.12C204 22.69 203.93 22.27 203.76 21.87C203.6 21.48 203.33 21.14 203 20.87C202.67 20.6 202.28 20.41 201.86 20.33C201.44 20.24 201.01 20.26 200.6 20.38L200.6 20.38" />
		</g>
	</g>
	<g id="Layer">
		<g id="Layer">
			<path id="Layer" class="shp6" d="M27.53 32.95L27.53 32.95L27.21 33.16C26.42 33.69 27.42 34.27 29.42 34.44L74.42 38.27C76.42 38.44 78.64 38.15 79.42 37.63L79.42 37.63L79.73 37.42C80.52 36.89 79.53 36.31 77.53 36.14L32.53 32.31C30.53 32.14 28.31 32.43 27.53 32.95Z" />
		</g>
	</g>
	<g id="Layer">
		<g id="Layer">
			<path id="Layer" class="shp6" d="M39.47 30.06L39.47 30.06L39.16 30.27C38.37 30.8 39.36 31.38 41.36 31.55L86.36 35.38C88.36 35.55 90.58 35.26 91.36 34.74L91.36 34.74L91.67 34.53C92.46 34 91.47 33.42 89.46 33.25L44.46 29.42C42.46 29.25 40.24 29.54 39.46 30.06" />
		</g>
	</g>
	<g id="Layer">
		<g id="Layer">
			<path id="Layer" class="shp6" d="M51.42 27.17L51.42 27.17L51.11 27.38C50.32 27.92 51.31 28.49 53.31 28.66L98.31 32.49C100.31 32.66 102.53 32.37 103.31 31.85L103.31 31.85L103.63 31.64C104.41 31.1 103.42 30.53 101.42 30.36L56.42 26.53C54.42 26.36 52.2 26.65 51.42 27.17Z" />
		</g>
	</g>
	<g id="Layer">
		<g id="Layer">
			<path id="Layer" class="shp6" d="M63.38 24.28L63.38 24.28L63.06 24.49C62.27 25.02 63.27 25.6 65.27 25.77L110.27 29.6C112.27 29.77 114.49 29.48 115.27 28.96L115.27 28.96L115.58 28.75C116.37 28.22 115.38 27.64 113.38 27.47L68.38 23.64C66.38 23.47 64.16 23.76 63.38 24.28" />
		</g>
	</g>
	<g id="Layer">
		<g id="Layer">
			<path id="Layer" class="shp6" d="M75.31 21.39L75.31 21.39L75 21.6C74.21 22.13 75.2 22.71 77.21 22.88L122.21 26.71C124.21 26.88 126.43 26.59 127.21 26.07L127.21 26.07L127.52 25.86C128.31 25.33 127.32 24.75 125.31 24.58L80.31 20.75C78.31 20.58 76.09 20.87 75.31 21.39" />
		</g>
	</g>
	<g id="Layer">
		<g id="Layer">
			<path id="Layer" class="shp6" d="M87.27 18.49L87.27 18.49L86.96 18.7C86.17 19.24 87.16 19.81 89.16 19.98L134.16 23.81C136.16 23.98 138.38 23.69 139.16 23.17L139.16 23.17L139.48 22.96C140.26 22.42 139.27 21.85 137.27 21.68L92.27 17.85C90.27 17.68 88.05 17.97 87.27 18.49Z" />
		</g>
	</g>
	<g id="Layer">
		<g id="Layer">
			<path id="Layer" class="shp6" d="M99.22 15.59L99.22 15.59L98.9 15.8C98.12 16.34 99.11 16.91 101.11 17.08L146.11 20.91C148.11 21.08 150.33 20.79 151.11 20.27L151.11 20.27L151.42 20.06C152.21 19.53 151.22 18.95 149.22 18.78L104.22 14.95C102.22 14.78 100 15.07 99.22 15.59" />
		</g>
	</g>
	<g id="Layer">
		<g id="Layer">
			<path id="Layer" class="shp6" d="M111.16 12.71L111.16 12.71L110.85 12.92C110.06 13.45 111.05 14.03 113.06 14.2L158.06 18.03C160.06 18.2 162.28 17.91 163.06 17.39L163.06 17.39L163.37 17.18C164.16 16.65 163.17 16.07 161.16 15.9L116.16 12.07C114.16 11.9 111.94 12.19 111.16 12.71" />
		</g>
	</g>
	<g id="Layer">
		<g id="Layer">
			<path id="Layer" class="shp6" d="M123.12 9.82L123.12 9.82L122.81 10.03C122.02 10.57 123.01 11.14 125.01 11.31L170.01 15.14C172.01 15.31 174.23 15.02 175.01 14.5L175.01 14.5L175.33 14.29C176.12 13.75 175.12 13.18 173.12 13.01L128.12 9.18C126.12 9.01 123.9 9.3 123.12 9.82" />
		</g>
	</g>
	<g id="Layer">
		<g id="Layer">
			<path id="Layer" class="shp6" d="M135.07 6.93L135.07 6.93L134.75 7.14C133.97 7.68 134.96 8.25 136.96 8.42L181.96 12.25C183.96 12.42 186.18 12.13 186.96 11.61L186.96 11.61L187.27 11.4C188.06 10.87 187.07 10.29 185.07 10.12L140.07 6.29C138.07 6.12 135.85 6.41 135.07 6.93" />
		</g>
	</g>
</svg>