<svg id="Layer_3" data-name="Layer 3" xmlns="http://www.w3.org/2000/svg" xmlns:xlink="http://www.w3.org/1999/xlink" viewBox="0 0 214.54 123.53"><defs><style>.cls-1,.cls-6{fill:none;}.cls-2{isolation:isolate;}.cls-3{fill:#00486c;}.cls-4{fill:#00537c;}.cls-5{fill:#004263;}.cls-6{stroke:#002533;stroke-width:4px;}.cls-7{clip-path:url(#clip-path);}.cls-8{fill:#00384c;}.cls-9{clip-path:url(#clip-path-2);}.cls-10{clip-path:url(#clip-path-3);}.cls-11{clip-path:url(#clip-path-4);}.cls-12{clip-path:url(#clip-path-5);}.cls-13{clip-path:url(#clip-path-6);}.cls-14{fill:#003e56;}.cls-15{clip-path:url(#clip-path-7);}.cls-16{clip-path:url(#clip-path-8);}.cls-17{clip-path:url(#clip-path-9);}.cls-18{clip-path:url(#clip-path-10);}.cls-19{clip-path:url(#clip-path-11);}.cls-20{clip-path:url(#clip-path-12);}.cls-21{clip-path:url(#clip-path-13);}.cls-22{clip-path:url(#clip-path-14);}.cls-23{clip-path:url(#clip-path-15);}.cls-24{clip-path:url(#clip-path-16);}.cls-25{fill:#002d3f;}.cls-26{clip-path:url(#clip-path-17);}.cls-27{clip-path:url(#clip-path-18);}.cls-28{clip-path:url(#clip-path-19);}.cls-29{clip-path:url(#clip-path-20);}.cls-30{clip-path:url(#clip-path-21);}.cls-31{clip-path:url(#clip-path-22);}.cls-32{clip-path:url(#clip-path-23);}.cls-33{clip-path:url(#clip-path-24);}.cls-34{clip-path:url(#clip-path-25);}.cls-35{fill:#fff;}</style><clipPath id="clip-path" transform="translate(-397.26 -416.41)"><polygon class="cls-1" points="407.99 522.62 407.82 462.27 415.57 462.95 415.74 523.3 407.99 522.62"/></clipPath><clipPath id="clip-path-2" transform="translate(-397.26 -416.41)"><polygon class="cls-1" points="421.61 523.73 421.44 463.37 429.19 464.05 429.36 524.41 421.61 523.73"/></clipPath><clipPath id="clip-path-3" transform="translate(-397.26 -416.41)"><polygon class="cls-1" points="435.22 524.84 435.05 464.48 442.81 465.15 442.98 525.52 435.22 524.84"/></clipPath><clipPath id="clip-path-4" transform="translate(-397.26 -416.41)"><polygon class="cls-1" points="448.83 525.94 448.67 465.58 456.43 466.26 456.6 526.62 448.83 525.94"/></clipPath><clipPath id="clip-path-5" transform="translate(-397.26 -416.41)"><polygon class="cls-1" points="462.44 527.04 462.27 466.69 470.06 467.37 470.23 527.72 462.44 527.04"/></clipPath><clipPath id="clip-path-6" transform="translate(-397.26 -416.41)"><polygon class="cls-1" points="486.9 526.18 486.45 465.66 493.6 463.87 494.05 524.4 486.9 526.18"/></clipPath><clipPath id="clip-path-7" transform="translate(-397.26 -416.41)"><polygon class="cls-1" points="498.87 523.08 498.41 462.56 505.56 460.78 506.01 521.29 498.87 523.08"/></clipPath><clipPath id="clip-path-8" transform="translate(-397.26 -416.41)"><polygon class="cls-1" points="510.82 519.98 510.36 459.46 517.52 457.67 517.98 518.2 510.82 519.98"/></clipPath><clipPath id="clip-path-9" transform="translate(-397.26 -416.41)"><polygon class="cls-1" points="522.78 516.88 522.33 456.35 529.48 454.57 529.93 515.09 522.78 516.88"/></clipPath><clipPath id="clip-path-10" transform="translate(-397.26 -416.41)"><polygon class="cls-1" points="534.74 513.77 534.29 453.25 541.44 451.47 541.89 511.99 534.74 513.77"/></clipPath><clipPath id="clip-path-11" transform="translate(-397.26 -416.41)"><polygon class="cls-1" points="546.7 510.67 546.25 450.15 553.4 448.37 553.85 508.89 546.7 510.67"/></clipPath><clipPath id="clip-path-12" transform="translate(-397.26 -416.41)"><polygon class="cls-1" points="558.65 507.57 558.2 447.04 565.35 445.26 565.8 505.79 558.65 507.57"/></clipPath><clipPath id="clip-path-13" transform="translate(-397.26 -416.41)"><polygon class="cls-1" points="570.61 504.46 570.16 443.95 577.31 442.17 577.76 502.68 570.61 504.46"/></clipPath><clipPath id="clip-path-14" transform="translate(-397.26 -416.41)"><polygon class="cls-1" points="582.57 501.37 582.12 440.84 589.27 439.06 589.72 499.58 582.57 501.37"/></clipPath><clipPath id="clip-path-15" transform="translate(-397.26 -416.41)"><polygon class="cls-1" points="594.53 498.26 594.07 437.74 601.22 435.95 601.68 496.48 594.53 498.26"/></clipPath><clipPath id="clip-path-16" transform="translate(-397.26 -416.41)"><polygon class="cls-1" points="474.86 455.23 422.98 450.54 426.58 448.2 478.46 452.89 474.86 455.23"/></clipPath><clipPath id="clip-path-17" transform="translate(-397.26 -416.41)"><polygon class="cls-1" points="486.81 452.33 434.92 447.65 438.52 445.31 490.41 449.99 486.81 452.33"/></clipPath><clipPath id="clip-path-18" transform="translate(-397.26 -416.41)"><polygon class="cls-1" points="498.75 449.44 446.87 444.75 450.48 442.41 502.36 447.1 498.75 449.44"/></clipPath><clipPath id="clip-path-19" transform="translate(-397.26 -416.41)"><polygon class="cls-1" points="510.7 446.55 458.82 441.87 462.43 439.52 514.31 444.21 510.7 446.55"/></clipPath><clipPath id="clip-path-20" transform="translate(-397.26 -416.41)"><polygon class="cls-1" points="522.65 443.66 470.76 438.97 474.37 436.63 526.26 441.32 522.65 443.66"/></clipPath><clipPath id="clip-path-21" transform="translate(-397.26 -416.41)"><polygon class="cls-1" points="534.6 440.77 482.72 436.08 486.32 433.74 538.21 438.43 534.6 440.77"/></clipPath><clipPath id="clip-path-22" transform="translate(-397.26 -416.41)"><polygon class="cls-1" points="546.55 437.88 494.67 433.19 498.28 430.85 550.16 435.54 546.55 437.88"/></clipPath><clipPath id="clip-path-23" transform="translate(-397.26 -416.41)"><polygon class="cls-1" points="558.5 434.98 506.61 430.3 510.21 427.95 562.1 432.64 558.5 434.98"/></clipPath><clipPath id="clip-path-24" transform="translate(-397.26 -416.41)"><polygon class="cls-1" points="570.45 432.09 518.57 427.4 522.17 425.06 574.05 429.75 570.45 432.09"/></clipPath><clipPath id="clip-path-25" transform="translate(-397.26 -416.41)"><polygon class="cls-1" points="582.4 429.2 530.52 424.51 534.12 422.17 586 426.86 582.4 429.2"/></clipPath></defs><title>Nautilus Container</title><g class="cls-2"><polygon class="cls-3" points="80.94 42.73 81 119.82 2.29 112.93 2.23 35.84 80.94 42.73"/><polygon class="cls-4" points="80.94 42.73 212.42 8.91 212.47 86 81 119.82 80.94 42.73"/><polygon class="cls-5" points="2.23 35.84 133.71 2.02 212.42 8.91 80.94 42.73 2.23 35.84"/></g><polygon class="cls-6" points="80.94 42.73 81 119.82 2.29 112.93 2.23 35.84 80.94 42.73"/><polygon class="cls-6" points="80.94 42.73 212.42 8.91 212.47 86 81 119.82 80.94 42.73"/><polygon class="cls-6" points="2.23 35.84 133.71 2.02 212.42 8.91 80.94 42.73 2.23 35.84"/><g class="cls-2"><g class="cls-7"><path class="cls-8" d="M411.67,462.61h0a3.27,3.27,0,0,0-3.82,3.06L408,519.24a4.06,4.06,0,0,0,3.85,3.72h0a3.27,3.27,0,0,0,3.82-3.06l-0.21-53.57a4.06,4.06,0,0,0-3.85-3.72" transform="translate(-397.26 -416.41)"/></g></g><g class="cls-2"><g class="cls-9"><path class="cls-8" d="M425.27,463.7c-2.12-.18-3.83,1.19-3.82,3.06l0.23,53.59a4.06,4.06,0,0,0,3.84,3.72h0a3.26,3.26,0,0,0,3.82-3.05l-0.23-53.59a4.08,4.08,0,0,0-3.85-3.72" transform="translate(-397.26 -416.41)"/></g></g><g class="cls-2"><g class="cls-10"><path class="cls-8" d="M438.87,464.81c-2.12-.18-3.82,1.18-3.82,3.05l0.26,53.6a4.07,4.07,0,0,0,3.84,3.72,3.26,3.26,0,0,0,3.82-3.05l-0.26-53.6a4.06,4.06,0,0,0-3.84-3.72" transform="translate(-397.26 -416.41)"/></g></g><g class="cls-2"><g class="cls-11"><path class="cls-8" d="M452.48,465.92a3.25,3.25,0,0,0-3.81,3l0.27,53.62a4.06,4.06,0,0,0,3.84,3.71,3.25,3.25,0,0,0,3.8-3.06l-0.27-53.61a4,4,0,0,0-3.83-3.71" transform="translate(-397.26 -416.41)"/></g></g><g class="cls-2"><g class="cls-12"><path class="cls-8" d="M466.1,467h0a3.25,3.25,0,0,0-3.8,3l0.3,53.63a4,4,0,0,0,3.82,3.69h0a3.24,3.24,0,0,0,3.8-3l-0.3-53.63a4,4,0,0,0-3.82-3.7" transform="translate(-397.26 -416.41)"/></g></g><g class="cls-2"><g class="cls-13"><path class="cls-14" d="M490.23,464.71a4.68,4.68,0,0,0-3.35,4.36v53.54a2.64,2.64,0,0,0,3.38,2.74h0a4.67,4.67,0,0,0,3.34-4.35V467.45a2.64,2.64,0,0,0-3.37-2.74h0" transform="translate(-397.26 -416.41)"/></g></g><g class="cls-2"><g class="cls-15"><path class="cls-14" d="M502.18,461.62a4.68,4.68,0,0,0-3.35,4.36V519.5a2.63,2.63,0,0,0,3.37,2.74h0a4.67,4.67,0,0,0,3.34-4.36V464.35a2.63,2.63,0,0,0-3.38-2.74h0" transform="translate(-397.26 -416.41)"/></g></g><g class="cls-2"><g class="cls-16"><path class="cls-14" d="M514.14,458.51a4.69,4.69,0,0,0-3.35,4.36v53.54a2.64,2.64,0,0,0,3.38,2.74h0a4.69,4.69,0,0,0,3.35-4.36V461.24a2.64,2.64,0,0,0-3.38-2.74h0" transform="translate(-397.26 -416.41)"/></g></g><g class="cls-2"><g class="cls-17"><path class="cls-14" d="M526.1,455.41a4.68,4.68,0,0,0-3.35,4.36V513.3a2.64,2.64,0,0,0,3.38,2.74h0a4.67,4.67,0,0,0,3.34-4.35V458.14a2.64,2.64,0,0,0-3.37-2.74h0" transform="translate(-397.26 -416.41)"/></g></g><g class="cls-2"><g class="cls-18"><path class="cls-14" d="M538.05,452.31a4.66,4.66,0,0,0-3.34,4.35V510.2a2.63,2.63,0,0,0,3.37,2.74h0a4.67,4.67,0,0,0,3.34-4.36V455a2.63,2.63,0,0,0-3.38-2.74h0" transform="translate(-397.26 -416.41)"/></g></g><g class="cls-2"><g class="cls-19"><path class="cls-14" d="M550,449.21a4.69,4.69,0,0,0-3.35,4.36V507.1a2.64,2.64,0,0,0,3.37,2.74h0a4.69,4.69,0,0,0,3.35-4.36V451.94A2.64,2.64,0,0,0,550,449.2h0" transform="translate(-397.26 -416.41)"/></g></g><g class="cls-2"><g class="cls-20"><path class="cls-14" d="M562,446.1a4.68,4.68,0,0,0-3.35,4.36V504a2.64,2.64,0,0,0,3.38,2.74h0a4.69,4.69,0,0,0,3.35-4.36V448.83A2.64,2.64,0,0,0,562,446.1h0" transform="translate(-397.26 -416.41)"/></g></g><g class="cls-2"><g class="cls-21"><path class="cls-14" d="M573.94,443a4.67,4.67,0,0,0-3.34,4.36v53.53a2.63,2.63,0,0,0,3.37,2.74h0a4.67,4.67,0,0,0,3.34-4.36V445.74A2.63,2.63,0,0,0,574,443h0" transform="translate(-397.26 -416.41)"/></g></g><g class="cls-2"><g class="cls-22"><path class="cls-14" d="M585.89,439.9a4.69,4.69,0,0,0-3.35,4.36V497.8a2.64,2.64,0,0,0,3.37,2.74h0a4.68,4.68,0,0,0,3.35-4.36V442.63a2.64,2.64,0,0,0-3.38-2.74h0" transform="translate(-397.26 -416.41)"/></g></g><g class="cls-2"><g class="cls-23"><path class="cls-14" d="M597.85,436.8a4.69,4.69,0,0,0-3.35,4.36v53.54a2.64,2.64,0,0,0,3.38,2.74h0a4.69,4.69,0,0,0,3.35-4.36V439.53a2.64,2.64,0,0,0-3.37-2.74h0" transform="translate(-397.26 -416.41)"/></g></g><g class="cls-2"><g class="cls-24"><path class="cls-25" d="M424.79,449.36l0,0-0.32.21c-0.79.53,0.21,1.11,2.21,1.28l45,3.83c2,0.17,4.22-.12,5-0.64l0,0,0.31-.21c0.79-.53-0.2-1.11-2.2-1.28l-45-3.83c-2-.17-4.22.12-5,0.64" transform="translate(-397.26 -416.41)"/></g></g><g class="cls-2"><g class="cls-26"><path class="cls-25" d="M436.73,446.47l0,0-0.31.21c-0.79.53,0.2,1.11,2.2,1.28l45,3.83c2,0.17,4.22-.12,5-0.64l0,0,0.31-.21c0.79-.53-0.2-1.11-2.21-1.28l-45-3.83c-2-.17-4.22.12-5,0.64" transform="translate(-397.26 -416.41)"/></g></g><g class="cls-2"><g class="cls-27"><path class="cls-25" d="M448.68,443.58l0,0-0.31.21c-0.79.54,0.2,1.11,2.2,1.28l45,3.83c2,0.17,4.22-.12,5-0.64l0,0,0.32-.21c0.78-.54-0.21-1.11-2.21-1.28l-45-3.83c-2-.17-4.22.12-5,0.64" transform="translate(-397.26 -416.41)"/></g></g><g class="cls-2"><g class="cls-28"><path class="cls-25" d="M460.64,440.69l0,0-0.32.21c-0.79.53,0.21,1.11,2.21,1.28l45,3.83c2,0.17,4.22-.12,5-0.64l0,0,0.31-.21c0.79-.53-0.2-1.11-2.2-1.28l-45-3.83c-2-.17-4.22.12-5,0.64" transform="translate(-397.26 -416.41)"/></g></g><g class="cls-2"><g class="cls-29"><path class="cls-25" d="M472.57,437.8l0,0-0.31.21c-0.79.53,0.2,1.11,2.21,1.28l45,3.83c2,0.17,4.22-.12,5-0.64l0,0,0.31-.21c0.79-.53-0.2-1.11-2.21-1.28l-45-3.83c-2-.17-4.22.12-5,0.64" transform="translate(-397.26 -416.41)"/></g></g><g class="cls-2"><g class="cls-30"><path class="cls-25" d="M484.53,434.9l0,0-0.31.21c-0.79.54,0.2,1.11,2.2,1.28l45,3.83c2,0.17,4.22-.12,5-0.64l0,0,0.32-.21c0.78-.54-0.21-1.11-2.21-1.28l-45-3.83c-2-.17-4.22.12-5,0.64" transform="translate(-397.26 -416.41)"/></g></g><g class="cls-2"><g class="cls-31"><path class="cls-25" d="M496.48,432l0,0-0.32.21c-0.78.54,0.21,1.11,2.21,1.28l45,3.83c2,0.17,4.22-.12,5-0.64l0,0,0.31-.21c0.79-.53-0.2-1.11-2.2-1.28l-45-3.83c-2-.17-4.22.12-5,0.64" transform="translate(-397.26 -416.41)"/></g></g><g class="cls-2"><g class="cls-32"><path class="cls-25" d="M508.42,429.12l0,0-0.31.21c-0.79.53,0.2,1.11,2.21,1.28l45,3.83c2,0.17,4.22-.12,5-0.64l0,0,0.31-.21c0.79-.53-0.2-1.11-2.21-1.28l-45-3.83c-2-.17-4.22.12-5,0.64" transform="translate(-397.26 -416.41)"/></g></g><g class="cls-2"><g class="cls-33"><path class="cls-25" d="M520.38,426.23l0,0-0.31.21c-0.79.54,0.2,1.11,2.2,1.28l45,3.83c2,0.17,4.22-.12,5-0.64l0,0,0.32-.21c0.79-.54-0.21-1.11-2.21-1.28l-45-3.83c-2-.17-4.22.12-5,0.64" transform="translate(-397.26 -416.41)"/></g></g><g class="cls-2"><g class="cls-34"><path class="cls-25" d="M532.33,423.34l0,0-0.32.21c-0.78.54,0.21,1.11,2.21,1.28l45,3.83c2,0.17,4.22-.12,5-0.64l0,0,0.31-.21c0.79-.53-0.2-1.11-2.2-1.28l-45-3.83c-2-.17-4.22.12-5,0.64" transform="translate(-397.26 -416.41)"/></g></g><path id="Eraser" class="cls-35" d="M476.22,538.06l2.21,0.19,1.84-.47a1.74,1.74,0,0,1-.11,1.25,2.52,2.52,0,0,1-3.69.2A1.7,1.7,0,0,1,476.22,538.06Z" transform="translate(-397.26 -416.41)"/><path id="Eraser-2" data-name="Eraser" class="cls-35" d="M399.34,450.23l-1.86.44-0.21-.9Z" transform="translate(-397.26 -416.41)"/><path id="Eraser-3" data-name="Eraser" class="cls-35" d="M609.51,423.3l2.2,0.24a0.86,0.86,0,0,0,0-.91C611.39,422.33,610.52,422.58,609.51,423.3Z" transform="translate(-397.26 -416.41)"/></svg>