<svg xmlns="http://www.w3.org/2000/svg" viewBox="0 0 127.45 154.34"><g id="Layer_2" data-name="Layer 2"><g id="Layer_1-2" data-name="Layer 1"><path class="cls-1" d="M.17,31.82,63.81,0l63.64,31.82L63.81,63.64Z"/><path class="cls-1" d="M7.24,31.82l3.54-1.77,26.58,13.3-3.53,1.76Z"/><path class="cls-2" d="M7.24,31.82,33.83,45.11"/><path class="cls-3" d="M7.24,31.82l3.54-1.77"/><path class="cls-4" d="M10.78,30.05l26.58,13.3"/><path class="cls-4" d="M33.83,45.11l3.53-1.76"/><g id="b"><path class="cls-1" d="M37.22,46.81,40.76,45l26.59,13.3L63.81,60.1Z"/><path class="cls-5" d="M37.22,46.81,63.81,60.1"/><path class="cls-6" d="M37.22,46.81,40.76,45"/><path class="cls-7" d="M40.76,45l26.59,13.3"/><path class="cls-7" d="M63.81,60.1l3.54-1.76"/></g><g id="b-2" data-name="b"><path class="cls-1" d="M14.31,28.28l3.54-1.76L44.43,39.81,40.9,41.58Z"/><path class="cls-5" d="M14.31,28.28,40.9,41.58"/><path class="cls-6" d="M14.31,28.28l3.54-1.76"/><path class="cls-7" d="M17.85,26.52,44.44,39.81"/><path class="cls-7" d="M40.9,41.58l3.53-1.77"/></g><g id="b-3" data-name="b"><path class="cls-1" d="M44.29,43.27l3.54-1.76L74.42,54.8l-3.54,1.77Z"/><path class="cls-5" d="M44.29,43.27l26.59,13.3"/><path class="cls-6" d="M44.29,43.27l3.54-1.76"/><path class="cls-7" d="M47.83,41.51,74.42,54.8"/><path class="cls-7" d="M70.88,56.57l3.54-1.77"/></g><g id="b-4" data-name="b"><path class="cls-1" d="M21.38,24.75,24.92,23,51.51,36.27,48,38Z"/><path class="cls-5" d="M21.38,24.75,48,38"/><path class="cls-6" d="M21.38,24.75,24.92,23"/><path class="cls-7" d="M24.92,23,51.51,36.27"/><path class="cls-7" d="M48,38l3.54-1.77"/></g><g id="b-5" data-name="b"><path class="cls-1" d="M51.36,39.74,54.9,38l26.59,13.3L78,53Z"/><path class="cls-5" d="M51.36,39.74,78,53"/><path class="cls-6" d="M51.36,39.74,54.9,38"/><path class="cls-7" d="M54.9,38l26.59,13.3"/><path class="cls-7" d="M78,53l3.54-1.76"/></g><g id="b-6" data-name="b"><path class="cls-1" d="M28.45,21.21,32,19.45,58.58,32.74,55,34.51Z"/><path class="cls-5" d="M28.45,21.21,55,34.51"/><path class="cls-6" d="M28.45,21.21,32,19.45"/><path class="cls-7" d="M32,19.45,58.58,32.74"/><path class="cls-7" d="M55,34.51l3.54-1.77"/></g><g id="b-7" data-name="b"><path class="cls-1" d="M58.44,36.2,62,34.44,88.56,47.73,85,49.5Z"/><path class="cls-5" d="M58.44,36.2,85,49.5"/><path class="cls-6" d="M58.44,36.2,62,34.44"/><path class="cls-7" d="M62,34.44,88.56,47.73"/><path class="cls-7" d="M85,49.5l3.54-1.77"/></g><g id="b-8" data-name="b"><path class="cls-1" d="M35.53,17.68l3.53-1.77L65.65,29.2,62.11,31Z"/><path class="cls-5" d="M35.53,17.68,62.11,31"/><path class="cls-6" d="M35.53,17.68l3.53-1.77"/><path class="cls-7" d="M39.06,15.91,65.65,29.2"/><path class="cls-7" d="M62.11,31l3.54-1.77"/></g><g id="b-9" data-name="b"><path class="cls-1" d="M65.51,32.67,69,30.9,95.63,44.19,92.09,46Z"/><path class="cls-5" d="M65.51,32.67,92.09,46"/><path class="cls-6" d="M65.51,32.67,69,30.9"/><path class="cls-7" d="M69,30.9,95.63,44.19"/><path class="cls-7" d="M92.09,46l3.54-1.77"/></g><g id="b-10" data-name="b"><path class="cls-1" d="M42.6,14.14l3.53-1.77,26.59,13.3-3.54,1.77Z"/><path class="cls-5" d="M42.6,14.14l26.58,13.3"/><path class="cls-6" d="M42.6,14.14l3.53-1.77"/><path class="cls-7" d="M46.13,12.37l26.59,13.3"/><path class="cls-7" d="M69.18,27.44l3.54-1.77"/></g><g id="b-11" data-name="b"><path class="cls-1" d="M72.58,29.13l3.53-1.76L102.7,40.66l-3.53,1.77Z"/><path class="cls-5" d="M72.58,29.13l26.59,13.3"/><path class="cls-6" d="M72.58,29.13l3.53-1.76"/><path class="cls-7" d="M76.11,27.37,102.7,40.66"/><path class="cls-7" d="M99.17,42.43l3.53-1.77"/></g><g id="b-12" data-name="b"><path class="cls-1" d="M49.67,10.61,53.2,8.84,79.79,22.13,76.25,23.9Z"/><path class="cls-5" d="M49.67,10.61,76.25,23.9"/><path class="cls-6" d="M49.67,10.61,53.2,8.84"/><path class="cls-7" d="M53.2,8.84,79.79,22.13"/><path class="cls-7" d="M76.25,23.9l3.54-1.77"/></g><g id="b-13" data-name="b"><path class="cls-1" d="M79.65,25.6l3.53-1.77,26.59,13.29-3.53,1.77Z"/><path class="cls-5" d="M79.65,25.6l26.59,13.29"/><path class="cls-6" d="M79.65,25.6l3.53-1.77"/><path class="cls-7" d="M83.18,23.83l26.59,13.29"/><path class="cls-7" d="M106.24,38.89l3.53-1.77"/></g><g id="b-14" data-name="b"><path class="cls-1" d="M56.74,7.07,60.27,5.3,86.86,18.6l-3.53,1.76Z"/><path class="cls-5" d="M56.74,7.07,83.33,20.36"/><path class="cls-6" d="M56.74,7.07,60.27,5.3"/><path class="cls-7" d="M60.27,5.3,86.86,18.6"/><path class="cls-7" d="M83.33,20.36l3.53-1.76"/></g><g id="b-15" data-name="b"><path class="cls-1" d="M86.72,22.06l3.54-1.77,26.58,13.3-3.53,1.77Z"/><path class="cls-5" d="M86.72,22.06l26.59,13.3"/><path class="cls-6" d="M86.72,22.06l3.54-1.77"/><path class="cls-7" d="M90.26,20.29l26.58,13.3"/><path class="cls-7" d="M113.31,35.36l3.53-1.77"/></g><g id="b-16" data-name="b"><path class="cls-1" d="M63.81,3.54l3.54-1.77L93.93,15.06,90.4,16.83Z"/><path class="cls-5" d="M63.81,3.54,90.4,16.83"/><path class="cls-6" d="M63.81,3.54l3.54-1.77"/><path class="cls-7" d="M67.35,1.77,93.93,15.06"/><path class="cls-7" d="M90.4,16.83l3.53-1.77"/></g><g id="b-17" data-name="b"><path class="cls-1" d="M93.79,18.53l3.54-1.77,26.58,13.29-3.53,1.77Z"/><path class="cls-5" d="M93.79,18.53l26.59,13.29"/><path class="cls-6" d="M93.79,18.53l3.54-1.77"/><path class="cls-7" d="M97.33,16.76l26.58,13.29"/><path class="cls-7" d="M120.38,31.82l3.53-1.77"/></g><path class="cls-1" d="M63.15,63.46l63.9-31.95v90l-63.9,32Z"/><path class="cls-1" d="M66.7,66.69l3.55-1.77v37.6l-3.55,1.77Z"/><path class="cls-8" d="M66.7,66.69v37.6"/><path class="cls-9" d="M66.7,66.69l3.55-1.77"/><path class="cls-10" d="M70.25,64.92v37.6"/><path class="cls-10" d="M66.7,104.29l3.55-1.77"/><g id="b-18" data-name="b"><path class="cls-1" d="M66.7,109.09l3.55-1.77v37.6l-3.55,1.77Z"/><path class="cls-11" d="M66.7,109.09v37.6"/><path class="cls-6" d="M66.7,109.09l3.55-1.77"/><path class="cls-7" d="M70.25,107.32v37.6"/><path class="cls-7" d="M66.7,146.69l3.55-1.77"/></g><g id="b-19" data-name="b"><path class="cls-1" d="M73.8,63.14l3.55-1.77V99l-3.55,1.77Z"/><path class="cls-11" d="M73.8,63.14v37.6"/><path class="cls-6" d="M73.8,63.14l3.55-1.77"/><path class="cls-7" d="M77.35,61.37V99"/><path class="cls-7" d="M73.8,100.74,77.35,99"/></g><g id="b-20" data-name="b"><path class="cls-1" d="M73.8,105.54l3.55-1.77v37.6l-3.55,1.77Z"/><path class="cls-11" d="M73.8,105.54v37.6"/><path class="cls-6" d="M73.8,105.54l3.55-1.77"/><path class="cls-7" d="M77.35,103.77v37.6"/><path class="cls-7" d="M73.8,143.14l3.55-1.77"/></g><g id="b-21" data-name="b"><path class="cls-1" d="M80.9,59.59l3.55-1.77v37.6L80.9,97.19Z"/><path class="cls-11" d="M80.9,59.59v37.6"/><path class="cls-6" d="M80.9,59.59l3.55-1.77"/><path class="cls-7" d="M84.45,57.82v37.6"/><path class="cls-7" d="M80.9,97.19l3.55-1.77"/></g><g id="b-22" data-name="b"><path class="cls-1" d="M80.9,102l3.55-1.77v37.6l-3.55,1.77Z"/><path class="cls-11" d="M80.9,102v37.6"/><path class="cls-6" d="M80.9,102l3.55-1.77"/><path class="cls-7" d="M84.45,100.22v37.6"/><path class="cls-7" d="M80.9,139.59l3.55-1.77"/></g><g id="b-23" data-name="b"><path class="cls-1" d="M88,56l3.55-1.77v37.6L88,93.64Z"/><path class="cls-11" d="M88,56v37.6"/><path class="cls-6" d="M88,56l3.55-1.77"/><path class="cls-7" d="M91.55,54.27v37.6"/><path class="cls-7" d="M88,93.64l3.55-1.77"/></g><g id="b-24" data-name="b"><path class="cls-1" d="M88,98.44l3.55-1.77v37.6L88,136Z"/><path class="cls-11" d="M88,98.44V136"/><path class="cls-6" d="M88,98.44l3.55-1.77"/><path class="cls-7" d="M91.55,96.67v37.6"/><path class="cls-7" d="M88,136l3.55-1.77"/></g><g id="b-25" data-name="b"><path class="cls-1" d="M95.1,52.49l3.55-1.77v37.6L95.1,90.09Z"/><path class="cls-11" d="M95.1,52.49v37.6"/><path class="cls-6" d="M95.1,52.49l3.55-1.77"/><path class="cls-7" d="M98.65,50.72v37.6"/><path class="cls-7" d="M95.1,90.09l3.55-1.77"/></g><g id="b-26" data-name="b"><path class="cls-1" d="M95.1,94.89l3.55-1.77v37.6l-3.55,1.77Z"/><path class="cls-11" d="M95.1,94.89v37.6"/><path class="cls-6" d="M95.1,94.89l3.55-1.77"/><path class="cls-7" d="M98.65,93.12v37.6"/><path class="cls-7" d="M95.1,132.49l3.55-1.77"/></g><g id="b-27" data-name="b"><path class="cls-1" d="M102.2,48.94l3.55-1.77v37.6l-3.55,1.77Z"/><path class="cls-11" d="M102.2,48.94v37.6"/><path class="cls-6" d="M102.2,48.94l3.55-1.77"/><path class="cls-7" d="M105.75,47.17v37.6"/><path class="cls-7" d="M102.2,86.54l3.55-1.77"/></g><g id="b-28" data-name="b"><path class="cls-1" d="M102.2,91.34l3.55-1.77v37.6l-3.55,1.77Z"/><path class="cls-11" d="M102.2,91.34v37.6"/><path class="cls-6" d="M102.2,91.34l3.55-1.77"/><path class="cls-7" d="M105.75,89.57v37.6"/><path class="cls-7" d="M102.2,128.94l3.55-1.77"/></g><g id="b-29" data-name="b"><path class="cls-1" d="M109.3,45.39l3.55-1.77v37.6L109.3,83Z"/><path class="cls-11" d="M109.3,45.39V83"/><path class="cls-6" d="M109.3,45.39l3.55-1.77"/><path class="cls-7" d="M112.85,43.62v37.6"/><path class="cls-7" d="M109.3,83l3.55-1.77"/></g><g id="b-30" data-name="b"><path class="cls-1" d="M109.3,87.79,112.85,86v37.6l-3.55,1.77Z"/><path class="cls-11" d="M109.3,87.79v37.6"/><path class="cls-6" d="M109.3,87.79,112.85,86"/><path class="cls-7" d="M112.85,86v37.6"/><path class="cls-7" d="M109.3,125.39l3.55-1.77"/></g><g id="b-31" data-name="b"><path class="cls-1" d="M116.4,41.84,120,40.07v37.6l-3.55,1.77Z"/><path class="cls-11" d="M116.4,41.84v37.6"/><path class="cls-6" d="M116.4,41.84,120,40.07"/><path class="cls-7" d="M120,40.07v37.6"/><path class="cls-7" d="M116.4,79.44,120,77.67"/></g><g id="b-32" data-name="b"><path class="cls-1" d="M116.4,84.24,120,82.47v37.6l-3.55,1.77Z"/><path class="cls-11" d="M116.4,84.24v37.6"/><path class="cls-6" d="M116.4,84.24,120,82.47"/><path class="cls-7" d="M120,82.47v37.6"/><path class="cls-7" d="M116.4,121.84l3.55-1.77"/></g><g id="b-33" data-name="b"><path class="cls-1" d="M123.5,38.29l3.55-1.77v37.6l-3.55,1.77Z"/><path class="cls-11" d="M123.5,38.29v37.6"/><path class="cls-6" d="M123.5,38.29l3.55-1.77"/><path class="cls-7" d="M127.05,36.52v37.6"/><path class="cls-7" d="M123.5,75.89l3.55-1.77"/></g><g id="b-34" data-name="b"><path class="cls-1" d="M123.5,80.69l3.55-1.77v37.6l-3.55,1.77Z"/><path class="cls-11" d="M123.5,80.69v37.6"/><path class="cls-6" d="M123.5,80.69l3.55-1.77"/><path class="cls-7" d="M127.05,78.92v37.6"/><path class="cls-7" d="M123.5,118.29l3.55-1.77"/></g><path class="cls-1" d="M64.27,62.46.37,30.51v90l63.9,32Z"/><path class="cls-1" d="M60.72,65.69l-3.55-1.77v37.6l3.55,1.77Z"/><path class="cls-8" d="M60.72,65.69v37.6"/><path class="cls-9" d="M60.72,65.69l-3.55-1.77"/><path class="cls-10" d="M57.17,63.92v37.6"/><path class="cls-10" d="M60.72,103.29l-3.55-1.77"/><g id="b-35" data-name="b"><path class="cls-1" d="M60.72,108.09l-3.55-1.77v37.6l3.55,1.77Z"/><path class="cls-11" d="M60.72,108.09v37.6"/><path class="cls-6" d="M60.72,108.09l-3.55-1.77"/><path class="cls-7" d="M57.17,106.32v37.6"/><path class="cls-7" d="M60.72,145.69l-3.55-1.77"/></g><g id="b-36" data-name="b"><path class="cls-1" d="M53.62,62.14l-3.55-1.77V98l3.55,1.77Z"/><path class="cls-11" d="M53.62,62.14v37.6"/><path class="cls-6" d="M53.62,62.14l-3.55-1.77"/><path class="cls-7" d="M50.07,60.37V98"/><path class="cls-7" d="M53.62,99.74,50.07,98"/></g><g id="b-37" data-name="b"><path class="cls-1" d="M53.62,104.54l-3.55-1.77v37.6l3.55,1.77Z"/><path class="cls-11" d="M53.62,104.54v37.6"/><path class="cls-6" d="M53.62,104.54l-3.55-1.77"/><path class="cls-7" d="M50.07,102.77v37.6"/><path class="cls-7" d="M53.62,142.14l-3.55-1.77"/></g><g id="b-38" data-name="b"><path class="cls-1" d="M46.52,58.59,43,56.82v37.6l3.55,1.77Z"/><path class="cls-11" d="M46.52,58.59v37.6"/><path class="cls-6" d="M46.52,58.59,43,56.82"/><path class="cls-7" d="M43,56.82v37.6"/><path class="cls-7" d="M46.52,96.19,43,94.42"/></g><g id="b-39" data-name="b"><path class="cls-1" d="M46.52,101,43,99.22v37.6l3.55,1.77Z"/><path class="cls-11" d="M46.52,101v37.6"/><path class="cls-6" d="M46.52,101,43,99.22"/><path class="cls-7" d="M43,99.22v37.6"/><path class="cls-7" d="M46.52,138.59,43,136.82"/></g><g id="b-40" data-name="b"><path class="cls-1" d="M39.42,55l-3.55-1.77v37.6l3.55,1.77Z"/><path class="cls-11" d="M39.42,55v37.6"/><path class="cls-6" d="M39.42,55l-3.55-1.77"/><path class="cls-7" d="M35.87,53.27v37.6"/><path class="cls-7" d="M39.42,92.64l-3.55-1.77"/></g><g id="b-41" data-name="b"><path class="cls-1" d="M39.42,97.44l-3.55-1.77v37.6L39.42,135Z"/><path class="cls-11" d="M39.42,97.44V135"/><path class="cls-6" d="M39.42,97.44l-3.55-1.77"/><path class="cls-7" d="M35.87,95.67v37.6"/><path class="cls-7" d="M39.42,135l-3.55-1.77"/></g><g id="b-42" data-name="b"><path class="cls-1" d="M32.32,51.49l-3.55-1.77v37.6l3.55,1.77Z"/><path class="cls-11" d="M32.32,51.49v37.6"/><path class="cls-6" d="M32.32,51.49l-3.55-1.77"/><path class="cls-7" d="M28.77,49.72v37.6"/><path class="cls-7" d="M32.32,89.09l-3.55-1.77"/></g><g id="b-43" data-name="b"><path class="cls-1" d="M32.32,93.89l-3.55-1.77v37.6l3.55,1.77Z"/><path class="cls-11" d="M32.32,93.89v37.6"/><path class="cls-6" d="M32.32,93.89l-3.55-1.77"/><path class="cls-7" d="M28.77,92.12v37.6"/><path class="cls-7" d="M32.32,131.49l-3.55-1.77"/></g><g id="b-44" data-name="b"><path class="cls-1" d="M25.22,47.94l-3.55-1.77v37.6l3.55,1.77Z"/><path class="cls-11" d="M25.22,47.94v37.6"/><path class="cls-6" d="M25.22,47.94l-3.55-1.77"/><path class="cls-7" d="M21.67,46.17v37.6"/><path class="cls-7" d="M25.22,85.54l-3.55-1.77"/></g><g id="b-45" data-name="b"><path class="cls-1" d="M25.22,90.34l-3.55-1.77v37.6l3.55,1.77Z"/><path class="cls-11" d="M25.22,90.34v37.6"/><path class="cls-6" d="M25.22,90.34l-3.55-1.77"/><path class="cls-7" d="M21.67,88.57v37.6"/><path class="cls-7" d="M25.22,127.94l-3.55-1.77"/></g><g id="b-46" data-name="b"><path class="cls-1" d="M18.12,44.39l-3.55-1.77v37.6L18.12,82Z"/><path class="cls-11" d="M18.12,44.39V82"/><path class="cls-6" d="M18.12,44.39l-3.55-1.77"/><path class="cls-7" d="M14.57,42.62v37.6"/><path class="cls-7" d="M18.12,82l-3.55-1.77"/></g><g id="b-47" data-name="b"><path class="cls-1" d="M18.12,86.79,14.57,85v37.6l3.55,1.77Z"/><path class="cls-11" d="M18.12,86.79v37.6"/><path class="cls-6" d="M18.12,86.79,14.57,85"/><path class="cls-7" d="M14.57,85v37.6"/><path class="cls-7" d="M18.12,124.39l-3.55-1.77"/></g><g id="b-48" data-name="b"><path class="cls-1" d="M11,40.84,7.47,39.07v37.6L11,78.44Z"/><path class="cls-11" d="M11,40.84v37.6"/><path class="cls-6" d="M11,40.84,7.47,39.07"/><path class="cls-7" d="M7.47,39.07v37.6"/><path class="cls-7" d="M11,78.44,7.47,76.67"/></g><g id="b-49" data-name="b"><path class="cls-1" d="M11,83.24,7.47,81.47v37.6L11,120.84Z"/><path class="cls-11" d="M11,83.24v37.6"/><path class="cls-6" d="M11,83.24,7.47,81.47"/><path class="cls-7" d="M7.47,81.47v37.6"/><path class="cls-7" d="M11,120.84l-3.55-1.77"/></g><g id="b-50" data-name="b"><path class="cls-1" d="M3.92,37.29.37,35.52v37.6l3.55,1.77Z"/><path class="cls-11" d="M3.92,37.29v37.6"/><path class="cls-6" d="M3.92,37.29.37,35.52"/><path class="cls-7" d="M.37,35.52v37.6"/><path class="cls-7" d="M3.92,74.89.37,73.12"/></g><g id="b-51" data-name="b"><path class="cls-1" d="M3.92,79.69.37,77.92v37.6l3.55,1.77Z"/><path class="cls-11" d="M3.92,79.69v37.6"/><path class="cls-6" d="M3.92,79.69.37,77.92"/><path class="cls-7" d="M.37,77.92v37.6"/><path class="cls-7" d="M3.92,117.29.37,115.52"/></g><path class="cls-12" d="M.13,32.37,21.41,43,64,64.34v90L21.41,133,.13,122.37v-90Z"/><path class="cls-13" d="M126.59,31,105.31,41.61,62.71,62.92v90l42.6-21.31L126.59,121Z"/></g></g></svg>